<?xml version="1.0" encoding="UTF-8" standalone="no"?>
<!DOCTYPE svg PUBLIC "-//W3C//DTD SVG 1.1//EN" "http://www.w3.org/Graphics/SVG/1.1/DTD/svg11.dtd">
<svg width="100%" height="100%" viewBox="0 0 512 512" version="1.1" xmlns="http://www.w3.org/2000/svg" xmlns:xlink="http://www.w3.org/1999/xlink" xml:space="preserve" xmlns:serif="http://www.serif.com/" style="fill-rule:evenodd;clip-rule:evenodd;stroke-linejoin:round;stroke-miterlimit:2;">
    <g transform="matrix(1.90819,0,0,1.90819,-258.344,-232.065)">
        <path d="M327.768,269.391C338.454,263.236 338.454,247.814 327.766,241.66L327.761,241.658L291.527,220.81L331.399,202.218L345.714,210.453L345.736,210.466L386.392,233.857C403.102,243.471 403.102,267.582 386.392,277.196L345.743,300.582L345.714,300.599L328.778,310.343L288.905,291.75L327.761,269.395L327.768,269.391ZM206,290.605L206,311.79C206.005,324.092 219.314,331.788 229.979,325.652L252.89,312.471L292.763,331.063L247.932,356.856L247.903,356.873L207.467,380.137C190.801,389.725 170,377.695 170,358.467L170,273.818L206,290.605ZM295.384,181.497L255.512,200.09L229.979,185.4L229.964,185.392C219.3,179.27 206,186.968 206,199.269L206,223.177L170,239.965L170,152.585C170,133.357 190.801,121.327 207.467,130.915L247.917,154.187L247.932,154.196L295.384,181.497Z" style="fill:url(#_Linear1);"/>
    </g>
    <defs>
        <linearGradient id="_Linear1" x1="0" y1="0" x2="1" y2="0" gradientUnits="userSpaceOnUse" gradientTransform="matrix(261,261,-261,261,170,128)"><stop offset="0" style="stop-color:rgb(0,225,195);stop-opacity:1"/><stop offset="1" style="stop-color:rgb(0,209,213);stop-opacity:1"/></linearGradient>
    </defs>
</svg>
